<svg xmlns="http://www.w3.org/2000/svg" xmlns:xlink="http://www.w3.org/1999/xlink" width="864" zoomAndPan="magnify" viewBox="0 0 648 215.999996" height="288" preserveAspectRatio="xMidYMid meet" version="1.0"><defs><g/><clipPath id="553d3d128e"><path d="M 120.730469 21.742188 L 647.960938 21.742188 L 647.960938 215.992188 L 120.730469 215.992188 Z M 120.730469 21.742188 " clip-rule="nonzero"/></clipPath><clipPath id="c9cb8a6958"><path d="M 138.9375 43.457031 L 391.339844 43.457031 L 391.339844 194.28125 L 138.9375 194.28125 Z M 138.9375 43.457031 " clip-rule="nonzero"/></clipPath><clipPath id="f74bb5dab2"><path d="M 0 2.386719 L 133.5 2.386719 L 133.5 138.886719 L 0 138.886719 Z M 0 2.386719 " clip-rule="nonzero"/></clipPath></defs><g clip-path="url(#553d3d128e)"><path stroke-linecap="butt" transform="matrix(0.749967, 0, 0, 0.75, 120.729609, 21.740852)" fill="none" stroke-linejoin="miter" d="M 0.00114677 0.00178001 L 703.006373 0.00178001 L 703.006373 259.001796 L 0.00114677 259.001796 Z M 0.00114677 0.00178001 " stroke="#3c3c82" stroke-width="8" stroke-opacity="1" stroke-miterlimit="4"/></g><g clip-path="url(#c9cb8a6958)"><path fill="#3c3c82" d="M 138.9375 43.457031 L 391.339844 43.457031 L 391.339844 194.28125 L 138.9375 194.28125 Z M 138.9375 43.457031 " fill-opacity="1" fill-rule="nonzero"/></g><g clip-path="url(#f74bb5dab2)"><path fill="#3c3c82" d="M 131.585938 22.457031 C 130.949219 21.71875 130.378906 20.890625 129.570312 20.320312 C 129.070312 19.925781 128.671875 19.390625 128.171875 18.976562 C 127.671875 18.5625 126.570312 17.976562 125.898438 17.289062 C 125.226562 16.601562 124.535156 16.359375 123.878906 15.859375 C 122.949219 15.136719 121.777344 14.789062 120.8125 14.117188 C 119.847656 13.445312 119.191406 13.171875 118.328125 12.773438 C 117.347656 12.015625 115.984375 12.085938 115.035156 11.277344 C 114.382812 11.082031 113.742188 10.839844 113.125 10.550781 L 111.949219 10.085938 C 111.347656 9.898438 110.746094 9.707031 110.140625 9.585938 C 109.640625 9.261719 109.09375 9.066406 108.503906 9 L 107.984375 8.828125 L 107.105469 8.554688 L 106.605469 8.363281 L 105.917969 8.226562 L 105.054688 7.96875 C 104.140625 7.691406 103.210938 7.519531 102.28125 7.296875 L 101.609375 7.105469 C 100.761719 6.828125 99.847656 6.8125 98.988281 6.605469 L 98.503906 6.503906 C 98.089844 6.398438 97.675781 6.363281 97.261719 6.261719 C 96.847656 6.15625 96.332031 6.226562 95.882812 6.125 L 95.023438 5.917969 C 94.558594 5.882812 94.074219 5.917969 93.625 5.726562 C 92.488281 5.726562 91.367188 5.539062 90.230469 5.519531 C 86.507812 5.191406 82.765625 5.417969 79.058594 5.777344 C 78.644531 5.882812 78.214844 5.898438 77.800781 5.984375 L 77.488281 6.125 C 76.402344 6.382812 75.265625 6.296875 74.214844 6.710938 C 73.839844 6.839844 73.460938 6.945312 73.078125 7.035156 C 72.335938 7.019531 71.765625 7.535156 71.058594 7.65625 C 69.644531 7.933594 68.59375 9.085938 67.128906 9.242188 C 66.800781 9.484375 66.472656 9.726562 66.113281 9.929688 C 65.75 10.136719 65.007812 10.691406 64.457031 11.085938 C 63.351562 11.960938 62.339844 12.929688 61.421875 14 C 60.527344 14.757812 60.214844 15.929688 59.648438 16.894531 C 59.214844 17.582031 59.097656 18.410156 58.890625 19.183594 L 58.699219 19.648438 C 57.871094 19.546875 57.042969 19.476562 56.234375 19.339844 L 54.71875 19.21875 C 54.304688 19.117188 53.890625 19.097656 53.492188 18.960938 L 52.511719 18.890625 C 51.699219 18.652344 50.855469 18.652344 50.046875 18.460938 L 49.578125 18.375 C 48.667969 17.910156 47.597656 17.996094 46.648438 17.667969 C 45.976562 17.238281 45.132812 17.273438 44.390625 16.980469 L 43.875 16.738281 C 42.132812 16.046875 40.496094 15.136719 38.855469 14.203125 C 38.167969 13.824219 37.71875 13.152344 37.0625 12.722656 C 36.269531 12.242188 35.644531 11.597656 35.183594 10.792969 C 34.753906 10.035156 34.132812 9.414062 33.667969 8.691406 C 33.382812 8.210938 33.175781 7.699219 33.046875 7.15625 L 32.425781 6.277344 L 32.273438 5.898438 L 32.097656 5.382812 C 31.707031 4.425781 31.503906 3.433594 31.496094 2.402344 C 31.414062 2.886719 31.304688 3.363281 31.167969 3.832031 L 30.980469 4.175781 L 30.738281 4.847656 L 30.566406 5.367188 C 30.511719 5.589844 30.460938 5.832031 30.394531 6.054688 C 30.066406 7.003906 30.046875 8.019531 29.859375 9 C 29.839844 9.355469 29.792969 9.707031 29.71875 10.050781 C 29.519531 11.988281 29.457031 13.929688 29.53125 15.875 C 29.6875 16.894531 29.601562 17.925781 29.703125 18.960938 C 29.859375 19.460938 29.804688 19.976562 29.839844 20.492188 C 30.082031 21.527344 30.132812 22.597656 30.375 23.628906 C 30.445312 23.855469 30.496094 24.078125 30.566406 24.320312 C 30.632812 24.5625 30.667969 24.785156 30.71875 25.007812 C 30.773438 25.234375 30.875 25.578125 30.960938 25.871094 C 31.117188 26.457031 31.289062 27.042969 31.460938 27.628906 L 31.632812 28.128906 C 31.71875 28.402344 31.824219 28.695312 31.925781 28.972656 C 32.496094 29.816406 32.390625 30.917969 32.960938 31.746094 C 33.40625 32.414062 33.800781 33.109375 34.152344 33.832031 C 34.570312 34.257812 34.894531 34.746094 35.132812 35.296875 C 35.410156 35.933594 35.976562 36.382812 36.410156 36.898438 C 36.839844 37.414062 37.289062 37.5 37.597656 37.949219 C 38.941406 39.550781 40.941406 40.308594 42.789062 41.1875 L 43.304688 41.464844 L 43.632812 41.515625 L 45.011719 42.050781 C 44.929688 42.417969 44.8125 42.773438 44.667969 43.117188 L 44.476562 43.460938 L 44.289062 43.980469 L 44.203125 44.308594 C 43.820312 45.496094 43.820312 46.769531 43.40625 47.960938 C 43.390625 48.289062 43.375 48.613281 43.355469 48.941406 C 43.269531 49.230469 43.199219 49.523438 43.148438 49.820312 C 42.96875 50.800781 42.871094 51.789062 42.855469 52.785156 C 42.613281 54.164062 42.71875 55.558594 42.703125 56.9375 C 42.246094 57.246094 41.820312 57.589844 41.425781 57.972656 C 40.703125 58.644531 39.683594 58.816406 38.910156 59.417969 C 38.132812 60.023438 37.355469 60.210938 36.5625 60.554688 L 36.0625 60.761719 L 35.71875 60.8125 L 35.203125 61.039062 C 34.839844 61.105469 34.496094 61.160156 34.132812 61.261719 C 33.566406 61.292969 32.996094 61.292969 32.425781 61.261719 C 31.875 61.175781 31.390625 60.902344 30.859375 60.726562 C 30.238281 60.246094 29.804688 59.589844 29.359375 58.953125 C 28.910156 58.316406 27.910156 57.472656 27.445312 56.542969 L 25.910156 55.488281 L 25.03125 54.972656 L 24.496094 54.765625 C 23.664062 54.625 22.917969 54.8125 22.253906 55.335938 C 21.929688 55.75 21.550781 56.144531 21.238281 56.574219 C 20.929688 57.007812 20.722656 57.816406 20.515625 58.453125 L 20.152344 59.332031 C 20.125 59.628906 20.070312 59.921875 19.996094 60.210938 C 19.945312 60.660156 19.964844 61.140625 19.824219 61.574219 C 19.675781 63.667969 19.734375 65.757812 19.996094 67.84375 C 20.082031 68.148438 20.140625 68.460938 20.167969 68.773438 L 20.394531 69.5 C 20.460938 69.851562 20.5 70.207031 20.515625 70.566406 C 20.25 70.386719 20.007812 70.179688 19.789062 69.945312 C 19.105469 68.917969 18.332031 67.964844 17.464844 67.085938 C 16.789062 66.429688 16.671875 65.414062 16.050781 64.726562 C 15.429688 64.035156 15.015625 62.65625 14.566406 61.589844 C 14.414062 61.0625 14.238281 60.546875 14.03125 60.039062 C 13.273438 56.988281 13.03125 53.800781 13.53125 50.699219 C 13.5625 50.347656 13.625 50.003906 13.722656 49.664062 C 13.738281 49.265625 13.785156 48.871094 13.859375 48.476562 L 14.050781 47.804688 L 14.238281 47.289062 C 14.351562 46.601562 14.550781 45.9375 14.84375 45.304688 C 15.101562 44.738281 15.203125 44.101562 15.429688 43.515625 L 16.085938 42.273438 C 16.292969 41.847656 16.460938 41.40625 16.585938 40.945312 C 16.917969 40.125 17.351562 39.355469 17.878906 38.636719 L 17.929688 38.3125 C 18.808594 37.484375 19.34375 36.433594 19.875 35.382812 C 20.695312 34.460938 21.429688 33.480469 22.082031 32.433594 C 22.566406 31.847656 23.167969 31.382812 23.703125 30.851562 C 23.167969 31.003906 22.546875 31.109375 22.273438 31.640625 L 21.945312 31.730469 C 21.1875 32.050781 20.46875 32.445312 19.789062 32.917969 C 18.84375 33.660156 17.808594 34.261719 16.789062 34.917969 C 15.464844 36.292969 13.859375 37.378906 12.617188 38.84375 C 12.136719 39.449219 11.480469 39.894531 11.050781 40.535156 C 10.621094 41.171875 9.964844 42.085938 9.273438 42.738281 C 8.585938 43.394531 8.378906 44.53125 7.707031 45.273438 C 7.152344 45.882812 6.675781 46.550781 6.273438 47.269531 C 5.808594 47.839844 5.5 48.496094 5.171875 49.148438 C 4.9375 49.882812 4.621094 50.574219 4.222656 51.234375 L 3.808594 52.0625 C 3.515625 52.679688 3.277344 53.351562 2.929688 53.957031 C 2.585938 54.558594 2.621094 55.128906 2.464844 55.714844 L 2.101562 56.574219 C 2.050781 56.816406 2 57.039062 1.929688 57.28125 L 1.84375 57.59375 C 1.628906 58.042969 1.484375 58.511719 1.414062 59.003906 C 1.363281 59.230469 1.308594 59.46875 1.257812 59.695312 C 1.207031 59.917969 1.136719 60.160156 1.070312 60.402344 L 0.964844 60.882812 C 0.707031 61.746094 0.722656 62.640625 0.535156 63.503906 C 0.5 63.777344 0.484375 64.054688 0.449219 64.328125 C 0.414062 64.605469 0.328125 65.347656 0.292969 65.847656 C 0 66.742188 0.222656 67.707031 0.136719 68.621094 C 0.0351562 71.222656 0.34375 73.804688 0.707031 76.375 C 0.863281 77.011719 0.964844 77.667969 1.121094 78.304688 L 1.242188 78.632812 C 1.308594 78.90625 1.34375 79.183594 1.394531 79.476562 C 1.449219 79.769531 1.535156 80.078125 1.621094 80.386719 C 1.707031 80.699219 1.863281 80.957031 2 81.234375 C 2.1875 82.164062 2.453125 83.070312 2.792969 83.957031 C 3.019531 84.285156 3.183594 84.640625 3.292969 85.023438 C 3.757812 86.125 4.449219 87.144531 4.828125 88.28125 C 5.035156 89.054688 5.671875 89.589844 6 90.3125 C 6.707031 91.710938 8.035156 92.707031 8.636719 94.171875 C 9.636719 94.929688 10.414062 95.964844 11.273438 96.878906 L 11.515625 97.414062 C 12.359375 97.566406 12.824219 98.378906 13.601562 98.671875 C 12.53125 98.773438 11.464844 99.222656 10.707031 99.996094 C 10.304688 100.28125 9.960938 100.621094 9.671875 101.015625 C 9.207031 101.632812 9.136719 102.425781 8.964844 103.152344 C 8.757812 105.011719 9 106.890625 9.121094 108.75 C 9.296875 109.558594 9.414062 110.371094 9.464844 111.199219 C 9.671875 112.335938 9.707031 113.507812 9.84375 114.644531 C 9.980469 115.78125 9.894531 116.832031 10.066406 117.917969 C 10.140625 119.472656 10.101562 121.023438 9.945312 122.570312 L 10.378906 123.070312 C 11.273438 123.808594 11.652344 125.066406 12.722656 125.601562 C 13.394531 126 13.792969 126.6875 14.308594 127.257812 C 14.824219 127.824219 15.496094 128.136719 16.066406 128.601562 C 16.636719 129.066406 17.066406 129.667969 17.6875 130.046875 C 18.308594 130.425781 18.894531 130.667969 19.359375 131.167969 C 19.824219 131.667969 21.015625 132.269531 21.824219 132.855469 C 22.636719 133.441406 23.773438 133.769531 24.6875 134.371094 C 25.601562 134.976562 26.773438 135.40625 27.808594 135.976562 C 28.328125 136.273438 28.886719 136.476562 29.480469 136.578125 C 30.324219 136.90625 31.117188 137.386719 31.925781 137.800781 L 32.253906 137.855469 L 32.804688 138.058594 L 33.445312 138.492188 L 33.996094 138.628906 C 34.570312 138.785156 35.15625 138.867188 35.753906 138.871094 L 35.839844 138.457031 C 36.21875 137.886719 36.511719 137.25 36.910156 136.699219 C 37.304688 136.148438 37.53125 135.40625 38.132812 134.957031 L 38.632812 134.734375 C 40.355469 134.5625 42.082031 134.941406 43.804688 134.925781 C 44.960938 134.890625 46.113281 135.097656 47.269531 135.027344 C 48.992188 135.011719 50.753906 135.183594 52.40625 134.683594 C 52.703125 134.539062 53.007812 134.417969 53.320312 134.320312 L 54.355469 133.71875 L 55.199219 133.203125 C 56.511719 132.804688 57.699219 132.117188 58.804688 131.324219 C 60.625 130.378906 62.371094 129.308594 64.042969 128.117188 C 64.765625 127.773438 65.507812 127.445312 66.078125 126.859375 L 66.386719 126.773438 C 68.042969 125.550781 69.9375 124.6875 71.59375 123.449219 C 72.09375 123.144531 72.617188 122.894531 73.164062 122.691406 L 73.507812 122.640625 L 74.351562 122.257812 L 75.058594 122 L 75.730469 121.863281 L 76.59375 121.5 C 77.25 121.433594 77.871094 121.226562 78.488281 121.054688 L 78.835938 120.863281 C 79.21875 120.710938 79.609375 120.578125 80.007812 120.46875 C 80.816406 120.15625 81.660156 119.949219 82.488281 119.710938 L 82.746094 119.449219 C 83.714844 119.210938 84.558594 118.625 85.386719 118.089844 C 85.972656 117.753906 86.578125 117.449219 87.195312 117.175781 C 88.179688 116.4375 89.125 115.660156 90.023438 114.832031 C 90.4375 114.332031 90.9375 113.902344 91.382812 113.421875 C 91.832031 112.9375 92.453125 112.128906 93.058594 111.542969 C 93.109375 112.371094 92.988281 113.175781 92.695312 113.953125 L 93.332031 113.660156 C 94.003906 113.316406 94.710938 113.007812 95.316406 112.542969 C 95.917969 112.078125 96.917969 111.628906 97.625 111.007812 C 98.332031 110.386719 98.625 109.835938 99.175781 109.285156 C 100.132812 108.550781 100.90625 107.660156 101.503906 106.613281 C 102.210938 105.613281 102.96875 104.648438 103.605469 103.597656 C 104.078125 102.953125 104.476562 102.261719 104.796875 101.53125 C 105.089844 100.753906 105.605469 100.101562 105.933594 99.324219 C 106.09375 99.003906 106.261719 98.695312 106.433594 98.394531 C 106.660156 97.964844 106.917969 97.535156 107.105469 97.085938 C 107.296875 96.636719 107.453125 95.914062 107.675781 95.34375 L 107.746094 95.019531 L 108.191406 94.328125 C 108.257812 93.972656 108.351562 93.621094 108.46875 93.277344 L 108.832031 92.589844 C 108.984375 92.003906 109.160156 91.433594 109.296875 90.847656 L 109.589844 90.332031 L 109.625 89.984375 L 109.847656 89.46875 C 110.175781 88.503906 110.261719 87.488281 110.570312 86.523438 L 110.777344 86.023438 C 111.089844 84.835938 111.277344 83.609375 111.570312 82.40625 C 111.640625 82.128906 111.675781 81.835938 111.726562 81.558594 C 111.832031 80.972656 111.917969 80.390625 112.070312 79.820312 C 112.140625 79.597656 112.210938 79.371094 112.277344 79.148438 C 112.347656 78.925781 112.363281 78.457031 112.417969 78.113281 C 112.710938 75.960938 113.019531 73.804688 113.175781 71.617188 C 113.261719 70.980469 113.242188 70.34375 113.3125 69.707031 C 113.382812 69.066406 113.3125 68.050781 113.46875 67.242188 C 113.625 66.433594 113.535156 65.640625 113.554688 64.828125 C 113.535156 63.742188 113.625 62.640625 113.46875 61.574219 C 113.3125 60.503906 113.570312 59.539062 113.277344 58.589844 C 112.984375 57.644531 113.277344 57.007812 113.125 56.230469 C 113.097656 55.34375 112.976562 54.472656 112.761719 53.613281 C 112.742188 53.335938 112.742188 53.058594 112.726562 52.769531 L 112.570312 52.5625 C 112.589844 51.355469 112.246094 50.183594 112.140625 48.992188 L 111.898438 48.476562 C 111.761719 47.667969 111.675781 46.839844 111.382812 46.066406 L 111.3125 45.738281 L 111.070312 45.21875 C 111.019531 44.925781 110.984375 44.652344 110.953125 44.359375 L 110.746094 43.84375 L 110.417969 42.808594 C 110.019531 41.621094 109.847656 40.34375 109.296875 39.207031 C 109.074219 38.488281 108.789062 37.800781 108.433594 37.140625 L 108.003906 36.070312 L 107.710938 35.589844 C 107.710938 35.503906 107.691406 35.328125 107.691406 35.242188 L 107.453125 34.777344 C 107.089844 34.210938 106.882812 33.589844 106.640625 32.96875 C 106.46875 32.695312 106.28125 32.417969 106.089844 32.140625 C 106.191406 32.433594 106.3125 32.710938 106.433594 32.988281 C 107.277344 34.46875 107.3125 36.242188 108.019531 37.777344 L 108.070312 38.136719 C 108.210938 38.605469 108.347656 39.070312 108.453125 39.535156 C 108.554688 40 108.554688 40.015625 108.589844 40.257812 L 108.847656 40.742188 C 108.882812 41.207031 108.917969 41.652344 108.933594 42.117188 C 108.953125 42.585938 109.105469 42.6875 109.191406 42.964844 L 109.246094 43.324219 L 109.503906 43.84375 C 109.554688 44.167969 109.589844 44.515625 109.625 44.859375 C 109.8125 45.546875 109.863281 46.273438 110.019531 46.976562 C 110.175781 47.683594 110.226562 48.667969 110.398438 49.492188 C 110.570312 51.648438 110.953125 53.765625 110.984375 55.9375 C 111.246094 58.503906 111.140625 61.105469 111.140625 63.675781 C 111.160156 64.09375 111.117188 64.507812 111.019531 64.914062 C 110.980469 66.878906 110.816406 68.832031 110.519531 70.773438 C 110.476562 71.128906 110.410156 71.476562 110.332031 71.824219 C 110.300781 72.167969 110.242188 72.507812 110.15625 72.839844 C 110.070312 73.582031 109.953125 74.304688 109.863281 75.03125 C 109.777344 75.753906 109.625 76.203125 109.484375 76.789062 L 109.363281 77.132812 C 109.277344 77.476562 109.226562 77.820312 109.140625 78.164062 C 109.054688 78.511719 109.039062 78.632812 108.96875 78.855469 C 108.796875 79.613281 108.519531 80.335938 108.3125 81.078125 C 108.261719 81.300781 108.210938 81.527344 108.175781 81.765625 L 107.984375 82.128906 C 107.796875 82.628906 107.640625 83.164062 107.433594 83.664062 C 107.097656 84.125 106.949219 84.640625 106.984375 85.214844 L 106.691406 85.730469 L 106.660156 86.09375 C 106.269531 86.675781 105.941406 87.289062 105.675781 87.9375 C 105.226562 88.902344 104.519531 89.710938 104.140625 90.710938 C 103.761719 91.710938 103.003906 92.398438 102.402344 93.207031 C 102.003906 93.707031 101.832031 94.363281 101.347656 94.792969 C 100.539062 95.515625 100.089844 96.535156 99.316406 97.292969 L 99.246094 97.050781 L 99.402344 97.050781 C 99.425781 96.753906 99.488281 96.46875 99.589844 96.1875 C 99.648438 95.070312 99.644531 93.949219 99.574219 92.828125 C 99.433594 92.363281 99.453125 91.863281 99.332031 91.382812 C 99.210938 90.898438 99.210938 90.226562 99.382812 89.660156 C 99.433594 89.367188 99.488281 89.089844 99.554688 88.816406 C 99.777344 88.144531 99.925781 87.464844 100.003906 86.765625 C 100.125 86.367188 100.226562 85.953125 100.347656 85.539062 C 100.46875 85.128906 100.523438 84.953125 100.625 84.660156 C 100.632812 84.3125 100.683594 83.964844 100.78125 83.628906 C 100.855469 83.050781 100.976562 82.480469 101.140625 81.921875 C 101.160156 81.765625 101.195312 81.59375 101.226562 81.441406 C 101.261719 81.285156 101.347656 80.855469 101.417969 80.5625 C 101.660156 78.820312 102.003906 77.082031 102.109375 75.304688 C 102.453125 73.21875 102.519531 71.101562 102.710938 68.980469 C 102.902344 66.863281 102.726562 64.621094 102.695312 62.433594 C 102.488281 61.417969 102.609375 60.382812 102.519531 59.351562 C 102.296875 58.78125 102.503906 58.144531 102.261719 57.574219 C 102.019531 57.007812 102.261719 56.523438 102.125 56.023438 C 102.066406 55.050781 101.945312 54.085938 101.761719 53.128906 C 101.695312 52.457031 101.554688 51.785156 101.503906 51.113281 C 101.425781 50.828125 101.363281 50.542969 101.316406 50.25 C 101.246094 49.960938 101.191406 49.667969 101.160156 49.375 L 100.96875 48.839844 C 100.78125 47.910156 100.640625 46.976562 100.382812 46.066406 L 100.296875 45.753906 L 100.109375 45.238281 C 99.988281 44.667969 99.867188 44.101562 99.710938 43.53125 L 99.417969 42.824219 L 99.261719 42.292969 C 99.175781 42 99.109375 41.722656 99.023438 41.429688 C 98.761719 40.6875 98.695312 39.894531 98.316406 39.191406 C 98.144531 38.726562 98.007812 38.257812 97.902344 37.777344 L 97.4375 37.121094 C 97.4375 37.035156 97.417969 36.847656 97.417969 36.761719 L 97.109375 36.277344 C 96.832031 35.675781 96.675781 35.019531 96.367188 34.433594 C 95.796875 33.539062 95.46875 32.519531 94.917969 31.589844 L 94.589844 31.074219 L 94.367188 30.558594 L 94.003906 30.074219 C 93.796875 29.472656 93.675781 28.816406 93.28125 28.300781 C 93.355469 28.605469 93.457031 28.898438 93.589844 29.179688 C 93.851562 30.230469 94.089844 31.296875 94.558594 32.296875 C 94.675781 32.710938 94.78125 33.105469 94.867188 33.519531 L 95.144531 34.003906 C 95.230469 34.519531 95.332031 35.054688 95.46875 35.570312 L 95.660156 36.070312 C 95.867188 36.761719 95.988281 37.464844 96.160156 38.15625 C 96.210938 38.429688 96.246094 38.722656 96.316406 39 C 96.46875 40.085938 96.675781 41.152344 96.761719 42.238281 C 96.855469 42.578125 96.917969 42.921875 96.953125 43.273438 C 97.296875 44.722656 97.261719 46.238281 97.417969 47.71875 C 97.46875 50.492188 97.46875 53.285156 97.402344 56.058594 C 97.230469 57.074219 97.261719 58.109375 97.195312 59.144531 C 97.105469 59.65625 97.050781 60.171875 97.039062 60.695312 C 96.875 61.605469 96.765625 62.523438 96.710938 63.449219 C 96.539062 63.882812 96.574219 64.347656 96.539062 64.792969 C 96.296875 65.671875 96.382812 66.621094 96.074219 67.5 L 96.003906 68.414062 C 95.851562 69 95.851562 69.636719 95.574219 70.1875 C 95.46875 71.171875 95.246094 72.136719 95.074219 73.117188 L 94.953125 73.445312 C 94.796875 74.011719 94.695312 74.617188 94.558594 75.183594 C 94.503906 75.476562 94.453125 75.769531 94.367188 76.046875 C 94.28125 76.320312 94.316406 76.355469 94.296875 76.527344 L 94.003906 77.082031 C 93.953125 77.304688 93.902344 77.527344 93.867188 77.769531 C 93.832031 78.011719 93.695312 78.355469 93.609375 78.648438 L 93.539062 78.992188 L 93.296875 79.734375 C 93.246094 79.320312 93.210938 78.90625 93.175781 78.492188 L 92.832031 77.441406 C 92.628906 77.003906 92.515625 76.546875 92.488281 76.0625 C 92.332031 75.539062 92.132812 75.035156 91.882812 74.546875 L 91.765625 73.996094 C 91.492188 73.386719 91.15625 72.8125 90.765625 72.273438 C 90.589844 71.789062 90.402344 71.320312 90.195312 70.859375 C 89.851562 69.894531 89.09375 69.1875 88.523438 68.363281 C 88.832031 68.980469 89.09375 69.601562 89.386719 70.222656 L 89.609375 70.585938 C 89.625 70.738281 89.644531 70.910156 89.660156 71.082031 C 89.679688 71.257812 89.816406 71.550781 89.886719 71.773438 C 89.953125 71.996094 89.972656 72.238281 90.003906 72.480469 L 90.28125 72.980469 C 90.367188 73.875 90.488281 74.769531 90.816406 75.617188 C 90.953125 75.988281 91.039062 76.375 91.074219 76.769531 C 91.125 76.996094 91.179688 77.234375 91.230469 77.476562 C 91.695312 78.578125 91.832031 79.769531 92.089844 80.921875 L 92.296875 81.441406 C 92.472656 82.542969 92.609375 83.644531 92.867188 84.730469 L 92.953125 85.367188 C 93.28125 87.039062 93.351562 88.726562 93.523438 90.417969 C 93.695312 92.105469 93.488281 93.484375 93.402344 95 C 93.125 95.84375 93.230469 96.757812 93.003906 97.621094 L 92.816406 98.121094 L 92.609375 98.464844 C 92.589844 99.394531 92.144531 100.203125 91.832031 101.046875 C 91.523438 101.894531 91.230469 102.289062 90.988281 102.925781 L 90.574219 103.269531 C 90.136719 104.613281 89.371094 105.734375 88.28125 106.632812 C 87.78125 107.148438 87.558594 107.855469 87.039062 108.335938 C 86.523438 108.820312 86.023438 109.007812 85.574219 109.421875 C 85.125 109.835938 84.472656 110.644531 83.730469 111.058594 L 82.867188 111.578125 C 81.628906 112.367188 80.351562 113.074219 79.058594 113.746094 L 78.542969 114.007812 L 78.007812 114.125 L 77.144531 114.417969 L 76.300781 114.851562 C 75.707031 115.015625 75.128906 115.234375 74.578125 115.503906 L 73.699219 115.867188 C 73.339844 116.039062 72.996094 116.222656 72.664062 116.417969 L 72.507812 116.417969 C 73.25 115.523438 73.886719 114.558594 74.558594 113.609375 C 74.871094 113.007812 75.128906 112.367188 75.59375 111.871094 L 75.835938 111.542969 C 75.835938 111.457031 75.851562 111.265625 75.851562 111.164062 L 76.128906 110.886719 L 76.300781 110.335938 C 76.507812 109.871094 76.695312 109.40625 76.871094 108.941406 L 76.816406 108.820312 C 76.457031 109.441406 75.972656 109.957031 75.578125 110.558594 C 74.265625 111.835938 73.25 113.472656 71.59375 114.332031 C 71.335938 114.472656 71.25 114.765625 71.09375 114.988281 C 70.519531 115.382812 70.007812 115.847656 69.558594 116.382812 C 69.027344 116.554688 68.714844 117.054688 68.265625 117.367188 C 67.820312 117.675781 67.492188 118.019531 67.078125 118.332031 C 66.128906 118.984375 65.386719 119.933594 64.355469 120.46875 C 63.648438 120.8125 63.214844 121.535156 62.542969 121.949219 C 61.59375 122.570312 60.613281 123.136719 59.699219 123.792969 C 58.785156 124.449219 57.683594 125.308594 56.457031 125.671875 C 56.023438 125.820312 55.609375 126.015625 55.21875 126.257812 L 54.871094 126.308594 L 53.820312 126.6875 C 52.820312 126.929688 51.785156 127.03125 50.753906 127.1875 C 50.410156 127.269531 50.066406 127.328125 49.71875 127.359375 C 49.539062 127.414062 49.355469 127.449219 49.167969 127.464844 C 47.183594 127.496094 45.199219 127.480469 43.21875 127.464844 C 43.671875 127.113281 44.078125 126.714844 44.441406 126.273438 C 45.132812 125.535156 46.253906 125.535156 46.960938 124.84375 C 47.5625 124.351562 48.238281 123.976562 48.976562 123.722656 L 49.476562 123.550781 L 50.199219 123.292969 L 51.078125 123.035156 L 51.5625 122.964844 C 52.71875 122.640625 53.925781 122.5 55.027344 122 L 55.371094 121.933594 C 55.847656 121.632812 56.359375 121.417969 56.90625 121.292969 C 57.648438 121.089844 58.269531 120.640625 58.957031 120.328125 C 59.648438 120.019531 60.269531 119.984375 60.785156 119.554688 C 61.648438 118.917969 62.648438 118.46875 63.457031 117.746094 C 63.90625 117.332031 64.527344 117.226562 65.042969 116.917969 C 65.269531 116.691406 65.476562 116.453125 65.664062 116.195312 C 66.511719 115.679688 67.304688 115.085938 68.042969 114.417969 C 69.164062 113.644531 69.992188 112.558594 71.058594 111.714844 C 72.042969 110.492188 73.023438 109.265625 74.199219 108.234375 C 74.507812 107.5625 74.75 106.855469 75.230469 106.269531 C 76.042969 105.183594 76.488281 103.890625 77.25 102.773438 C 76.386719 103.789062 75.316406 104.597656 74.386719 105.5625 C 73.886719 106.027344 73.199219 106.199219 72.59375 106.511719 L 71.386719 107.132812 L 71.042969 107.164062 L 70.542969 107.457031 L 68.472656 107.890625 C 67.859375 108.109375 67.230469 108.210938 66.578125 108.199219 C 64.679688 108.390625 62.800781 108.5625 60.90625 108.769531 L 59.835938 108.992188 C 59.308594 109.054688 58.789062 109.167969 58.285156 109.335938 L 57.957031 109.441406 C 57.214844 109.664062 56.40625 109.679688 55.699219 110.027344 C 55.222656 110.175781 54.757812 110.359375 54.304688 110.578125 L 53.976562 110.628906 C 53.582031 110.851562 53.175781 111.039062 52.75 111.199219 L 52.097656 111.628906 L 51.75 111.664062 L 51.234375 111.851562 C 50.285156 112.109375 49.546875 112.800781 48.699219 113.246094 C 47.855469 113.695312 47.113281 114.074219 46.40625 114.609375 C 45.699219 115.144531 44.613281 115.816406 43.890625 116.609375 C 43.167969 117.402344 42.253906 117.453125 41.683594 118.191406 C 41.09375 118.9375 40.40625 119.574219 39.617188 120.105469 C 38.875 120.570312 38.496094 121.398438 37.945312 122.054688 C 37.390625 122.707031 36.855469 122.914062 36.445312 123.484375 C 36.03125 124.050781 35.769531 124.929688 35.183594 125.480469 C 34.597656 126.03125 33.976562 127.1875 33.425781 128.066406 L 33.082031 128.582031 L 33.011719 128.960938 L 32.945312 129.101562 C 32.839844 129.445312 32.71875 129.789062 32.582031 130.117188 L 32.410156 130.632812 L 32.253906 131.152344 L 31.980469 131.804688 C 31.300781 131.59375 30.660156 131.304688 30.046875 130.945312 L 29.703125 130.753906 C 28.980469 130.375 28.132812 130.253906 27.460938 129.753906 C 26.082031 128.945312 24.652344 128.203125 23.289062 127.359375 C 22.480469 126.859375 21.875 126.101562 21.03125 125.671875 C 20.550781 125.414062 19.980469 125.257812 19.636719 124.808594 C 18.859375 123.792969 17.757812 123.105469 16.789062 122.3125 C 16.273438 121.65625 15.808594 120.933594 15.101562 120.46875 C 15.101562 120.019531 15.117188 119.554688 15.152344 119.105469 C 15.378906 118.261719 15.203125 117.367188 15.257812 116.503906 C 15.308594 115.644531 15.101562 114.679688 15.085938 113.765625 C 14.859375 113.195312 15.050781 112.558594 14.824219 112.007812 C 14.617188 110.714844 14.585938 109.386719 14.308594 108.113281 C 14.324219 106.75 13.980469 105.425781 14.03125 104.0625 C 14.839844 104.015625 15.636719 103.90625 16.429688 103.738281 C 16.71875 103.675781 17.007812 103.601562 17.289062 103.511719 C 17.855469 103.507812 18.417969 103.472656 18.980469 103.410156 C 19.980469 103.269531 21.015625 103.289062 21.960938 102.925781 C 22.910156 102.566406 23.496094 102.617188 24.1875 102.238281 L 25.03125 101.875 C 26.066406 101.222656 27.238281 100.789062 28.132812 99.945312 C 29.03125 99.101562 30.011719 98.722656 30.546875 97.707031 C 31.425781 97.34375 31.824219 96.449219 32.511719 95.863281 C 33.203125 95.277344 33.167969 94.8125 33.582031 94.34375 C 34.359375 93.5 34.945312 92.484375 35.617188 91.554688 C 35.960938 90.949219 36.167969 90.261719 36.390625 89.589844 C 36.675781 89.285156 36.910156 88.945312 37.097656 88.574219 C 37.253906 88.089844 37.460938 87.644531 37.617188 87.160156 L 37.839844 86.851562 L 37.996094 86.316406 C 38.425781 85.332031 38.582031 84.25 38.804688 83.195312 C 38.957031 82.8125 39.074219 82.414062 39.148438 82.007812 C 39.269531 81.007812 39.441406 80.027344 39.441406 79.027344 C 39.441406 77.753906 39.597656 76.476562 39.390625 75.21875 C 38.605469 75.226562 37.835938 75.117188 37.082031 74.890625 L 36.582031 74.839844 L 36.0625 74.546875 L 35.359375 74.425781 C 35 74.324219 34.652344 74.183594 34.324219 74.011719 L 33.976562 73.960938 C 33.488281 73.777344 33.035156 73.53125 32.617188 73.21875 C 32.035156 72.960938 31.4375 72.746094 30.824219 72.582031 C 29.804688 71.34375 28.324219 70.601562 27.375 69.292969 C 26.425781 67.980469 25.515625 66.828125 25.203125 65.3125 C 25.039062 64.796875 24.902344 64.273438 24.789062 63.742188 C 24.789062 62.882812 24.703125 62.003906 24.789062 61.140625 C 25.308594 61.433594 25.445312 62.039062 25.753906 62.503906 C 26.308594 63.46875 27.117188 64.242188 27.925781 64.984375 C 28.574219 65.421875 29.265625 65.777344 29.996094 66.050781 L 30.324219 66.15625 C 31.273438 66.449219 32.289062 66.429688 33.273438 66.585938 C 34.183594 66.449219 35.152344 66.449219 36.03125 66.140625 L 36.855469 65.984375 C 37.511719 65.691406 38.238281 65.554688 38.855469 65.171875 C 39.316406 64.871094 39.8125 64.640625 40.339844 64.484375 C 41.203125 64.242188 41.820312 63.535156 42.546875 63.054688 C 43.269531 62.570312 43.71875 62.140625 44.289062 61.675781 C 44.988281 61.234375 45.597656 60.6875 46.113281 60.039062 C 46.875 58.96875 48.011719 58.246094 48.753906 57.160156 C 48.269531 57.007812 47.632812 57.039062 47.355469 56.523438 C 47.082031 56.007812 47.40625 55.59375 47.441406 55.128906 C 47.546875 53.679688 47.613281 52.214844 47.941406 50.804688 C 48.097656 49.769531 48.285156 48.734375 48.425781 47.703125 C 48.492188 47.476562 48.5625 47.238281 48.632812 47.011719 C 48.699219 46.789062 48.71875 46.5625 48.769531 46.324219 L 48.976562 45.804688 C 49.085938 44.867188 49.292969 43.945312 49.597656 43.050781 C 49.664062 42.808594 49.71875 42.566406 49.769531 42.34375 C 50.890625 42.136719 52.023438 42.054688 53.164062 42.101562 C 53.132812 43.132812 53.265625 44.144531 53.5625 45.132812 C 53.664062 45.460938 53.734375 45.804688 53.835938 46.152344 L 53.90625 46.667969 C 54.042969 47.132812 54.164062 47.597656 54.285156 48.0625 L 54.5625 48.132812 L 54.5625 47.976562 L 54.371094 47.976562 C 54.355469 47.132812 54.164062 46.304688 54.164062 45.460938 C 54.070312 45.175781 54.023438 44.882812 54.027344 44.582031 C 54.042969 43.6875 53.871094 42.722656 54.371094 41.910156 L 54.941406 41.859375 C 55.230469 41.773438 55.523438 41.710938 55.820312 41.671875 L 56.664062 41.5 C 57.066406 41.402344 57.476562 41.34375 57.890625 41.328125 L 58.597656 41.152344 L 59.285156 41.015625 C 58.921875 41.773438 58.285156 42.394531 58.042969 43.203125 C 58.007812 43.566406 58.128906 43.929688 58.183594 44.289062 L 58.75 44.632812 C 59.285156 44.773438 59.820312 44.824219 60.355469 44.960938 C 63.371094 45.375 66.421875 45.101562 69.457031 45.167969 C 70.113281 45.1875 70.730469 44.980469 71.371094 44.960938 L 72.316406 44.375 L 72.371094 44.03125 C 71.230469 43.859375 70.078125 43.910156 68.9375 43.703125 L 68.421875 43.445312 L 68.058594 43.410156 C 67.371094 43.117188 66.664062 42.859375 66.058594 42.429688 C 65.457031 42 65.320312 41.738281 64.941406 41.394531 L 66.007812 41.152344 L 65.820312 40.980469 C 64.972656 39.742188 64.386719 38.34375 63.320312 37.242188 C 62.941406 36.554688 62.5625 35.863281 61.941406 35.347656 C 61.269531 34.417969 60.234375 33.847656 59.542969 32.898438 C 58.855469 31.953125 58.183594 31.832031 57.492188 31.316406 C 56.316406 30.335938 55.070312 29.457031 53.75 28.679688 C 53.40625 28.523438 53.0625 28.351562 52.71875 28.214844 L 52.078125 27.800781 C 51.597656 27.523438 51.097656 27.28125 50.648438 26.972656 L 50.132812 26.851562 C 49.191406 26.265625 48.167969 25.914062 47.0625 25.800781 L 46.339844 25.558594 C 45.632812 25.457031 44.945312 25.289062 44.269531 25.058594 L 43.582031 24.886719 L 42.046875 24.542969 L 41.167969 24.300781 C 40.648438 24.027344 40.148438 23.699219 39.617188 23.421875 C 39.082031 23.148438 38.324219 23.042969 37.910156 22.511719 C 37.320312 21.835938 36.660156 21.246094 35.925781 20.734375 L 35.324219 20.21875 C 35.359375 21.855469 35.804688 23.457031 36.203125 25.027344 L 36.546875 25.75 C 37.046875 26.542969 37.53125 27.335938 37.960938 28.160156 C 38.390625 28.988281 39.21875 29.300781 39.824219 29.902344 C 40.425781 30.503906 40.617188 30.851562 41.027344 31.296875 C 41.441406 31.746094 41.734375 31.710938 42.097656 31.902344 C 42.773438 32.261719 43.40625 32.6875 43.996094 33.175781 L 44.355469 33.246094 C 45.582031 34.003906 46.960938 34.417969 48.320312 34.882812 C 48.726562 34.984375 49.121094 35.109375 49.511719 35.261719 L 49.839844 35.328125 L 50.527344 35.589844 C 51.664062 35.882812 52.839844 36.070312 53.976562 36.382812 L 54.648438 36.570312 L 55.355469 36.707031 L 56.027344 36.96875 C 56.53125 37.097656 57.042969 37.183594 57.5625 37.226562 L 57.890625 37.5 L 58.304688 37.605469 L 57.421875 38.019531 L 57.078125 38.085938 C 56.804688 38.171875 56.511719 38.207031 56.21875 38.277344 C 55.921875 38.34375 55.390625 38.414062 54.976562 38.519531 C 53.957031 38.550781 52.925781 38.570312 51.90625 38.519531 C 50.148438 38.300781 48.417969 37.941406 46.71875 37.433594 L 46.199219 37.226562 L 45.839844 37.191406 L 45.527344 36.914062 L 43.925781 36.46875 C 42.082031 35.242188 40.132812 34.089844 38.769531 32.296875 C 37.890625 31.695312 37.582031 30.609375 36.960938 29.78125 C 36.339844 28.953125 35.683594 27.800781 35.53125 26.628906 L 35.253906 26.09375 L 35.21875 25.75 L 34.976562 25.234375 C 34.925781 25.007812 34.890625 24.765625 34.859375 24.542969 C 34.410156 23.097656 34.445312 21.5625 34.253906 20.0625 C 34.179688 19 34.160156 17.9375 34.203125 16.875 L 34.632812 17.496094 L 35.03125 17.773438 L 35.117188 18.152344 C 36.371094 19.027344 37.667969 19.832031 39.011719 20.5625 C 39.675781 20.675781 40.300781 20.894531 40.890625 21.21875 L 41.769531 21.597656 L 42.304688 21.71875 L 42.804688 21.992188 L 43.855469 22.25 L 44.734375 22.527344 L 45.21875 22.597656 C 46.546875 22.90625 47.875 23.164062 49.21875 23.355469 C 49.511719 23.40625 49.804688 23.457031 50.097656 23.527344 L 51.527344 23.613281 L 52.285156 23.855469 C 52.683594 23.921875 53.078125 23.941406 53.476562 23.976562 C 54.785156 24.320312 56.183594 24.179688 57.492188 24.578125 C 58.527344 24.714844 59.578125 24.699219 60.59375 24.921875 L 61.921875 24.992188 C 62.59375 25.214844 63.300781 25.113281 63.992188 25.164062 C 64.679688 25.214844 65.027344 25.300781 65.542969 25.351562 C 66.457031 25.472656 67.371094 25.472656 68.300781 25.507812 C 68.820312 25.644531 69.351562 25.613281 69.886719 25.628906 C 71.300781 25.628906 72.699219 25.90625 74.128906 25.820312 L 74.128906 26.058594 C 73.472656 26.40625 73.042969 27.007812 72.628906 27.609375 C 72.214844 28.214844 72.265625 28.660156 72.128906 29.214844 C 71.871094 30.539062 72.351562 31.867188 73.058594 32.96875 C 73.46875 33.683594 73.964844 34.332031 74.542969 34.917969 C 75.128906 35.347656 75.851562 35.554688 76.402344 36.019531 L 76.402344 35.726562 L 75.765625 34.691406 C 75.214844 33.882812 75.042969 32.847656 75.109375 31.902344 C 75.1875 31.492188 75.285156 31.089844 75.402344 30.695312 C 75.695312 30.210938 75.871094 29.660156 76.300781 29.28125 C 76.730469 28.902344 76.9375 28.765625 77.214844 28.453125 L 78.25 27.972656 C 79.28125 27.507812 80.4375 27.371094 81.523438 27.058594 C 82.902344 26.921875 84.265625 26.765625 85.644531 26.851562 C 85.160156 26.507812 84.765625 26.058594 84.230469 25.800781 C 83.039062 25.285156 81.972656 24.5625 80.800781 24.042969 L 79.765625 23.507812 C 78.972656 23.234375 78.164062 23.0625 77.351562 22.835938 L 76.851562 22.648438 C 76.402344 22.496094 75.941406 22.382812 75.472656 22.304688 C 73.714844 21.957031 71.90625 21.957031 70.128906 21.71875 L 68.59375 21.632812 C 67.507812 21.320312 66.351562 21.632812 65.265625 21.355469 L 64.714844 21.511719 C 64.613281 21.0625 64.492188 20.613281 64.355469 20.167969 C 64.214844 19.71875 64.335938 19.734375 64.335938 19.527344 C 64.335938 19.324219 64.613281 18.925781 64.75 18.632812 C 65.285156 17.546875 66.320312 16.875 66.957031 15.875 L 68.558594 14.703125 C 69.199219 14.378906 69.820312 13.980469 70.457031 13.671875 C 71.09375 13.359375 71.851562 13.085938 72.542969 12.792969 C 73.9375 11.980469 75.59375 11.84375 77.144531 11.550781 L 77.664062 11.328125 L 78.179688 11.257812 C 79.316406 11 80.507812 11 81.660156 10.808594 C 83.128906 10.84375 84.574219 10.484375 86.023438 10.722656 C 87.074219 10.742188 88.144531 10.777344 89.195312 10.863281 C 90.917969 11.15625 92.710938 11 94.417969 11.429688 C 94.714844 11.46875 95.007812 11.527344 95.296875 11.601562 C 96.917969 11.792969 98.503906 12.15625 100.109375 12.464844 C 100.628906 12.582031 101.140625 12.738281 101.640625 12.929688 C 102.382812 13.1875 103.195312 13.152344 103.898438 13.464844 L 104.398438 13.671875 C 105.160156 13.84375 105.953125 13.964844 106.640625 14.34375 C 107.109375 14.472656 107.570312 14.625 108.019531 14.808594 C 108.660156 14.996094 109.296875 15.101562 109.933594 15.273438 L 110.605469 15.753906 C 111.023438 15.746094 111.425781 15.820312 111.8125 15.980469 L 112.65625 16.425781 C 113.273438 16.578125 113.851562 16.816406 114.398438 17.132812 L 114.742188 17.167969 L 115.589844 17.632812 L 115.933594 17.824219 C 116.589844 17.960938 117.242188 18.097656 117.847656 18.425781 C 118.449219 18.753906 119.207031 19.082031 119.914062 19.355469 C 120.621094 19.632812 121.65625 20.339844 122.65625 20.511719 C 123.484375 21.113281 124.484375 21.371094 125.414062 21.769531 C 125.863281 22.015625 126.320312 22.234375 126.792969 22.425781 C 127.691406 22.835938 128.757812 22.785156 129.570312 23.421875 C 129.929688 23.535156 130.277344 23.664062 130.621094 23.820312 L 130.949219 23.921875 L 132.136719 24.527344 L 132.5 24.714844 L 132.828125 24.785156 L 133.5 25.007812 C 132.929688 24.113281 132.191406 23.335938 131.585938 22.457031 Z M 40.734375 123.605469 C 42.441406 121.726562 44.335938 120.066406 46.425781 118.625 C 47.027344 118.054688 47.632812 117.46875 48.425781 117.210938 C 49.21875 116.953125 49.941406 116.28125 50.71875 115.867188 L 51.5625 115.488281 C 52.371094 115.195312 53.027344 114.523438 53.890625 114.332031 C 54.589844 114.171875 55.261719 113.929688 55.90625 113.609375 C 56.785156 113.179688 57.769531 112.988281 58.664062 112.59375 C 59.183594 112.457031 59.714844 112.335938 60.234375 112.179688 L 60.5625 112.09375 C 61.507812 111.714844 62.542969 111.75 63.527344 111.492188 L 64.164062 111.421875 C 64.972656 110.992188 65.921875 111.09375 66.785156 110.835938 C 67.117188 110.714844 67.457031 110.613281 67.800781 110.527344 L 68.664062 110.285156 L 69.199219 110.144531 L 70.613281 109.527344 C 71.023438 108.976562 71.730469 108.957031 72.371094 108.835938 C 71.644531 109.027344 71.113281 109.613281 70.40625 109.785156 C 69.679688 110.421875 68.992188 111.078125 68.199219 111.59375 L 67.820312 111.730469 C 67.113281 111.957031 66.472656 112.367188 65.765625 112.609375 L 65.0625 113.058594 L 64.199219 113.488281 L 63.492188 113.730469 L 63.007812 114.039062 L 62.492188 114.074219 L 60.921875 114.625 L 60.09375 115.058594 L 58.855469 115.488281 C 58.355469 115.746094 57.835938 116.003906 57.320312 116.210938 C 56.285156 116.589844 55.285156 117.089844 54.25 117.46875 C 52.890625 118.019531 51.734375 118.984375 50.304688 119.332031 C 49.871094 119.433594 49.597656 119.796875 49.253906 120.054688 C 48.710938 120.226562 48.179688 120.433594 47.667969 120.675781 C 46.648438 121.570312 45.320312 121.984375 44.21875 122.757812 C 43.3125 123.195312 42.464844 123.71875 41.667969 124.328125 C 41.183594 124.84375 40.617188 125.34375 39.925781 125.515625 C 39.378906 125.84375 38.863281 126.210938 38.375 126.617188 C 39.046875 125.515625 39.910156 124.585938 40.734375 123.605469 Z M 24.875 79.804688 C 25.578125 80.074219 26.261719 80.390625 26.925781 80.75 L 27.273438 80.800781 L 27.789062 81.027344 C 28.410156 81.226562 29.042969 81.386719 29.6875 81.507812 L 30.375 81.785156 L 30.703125 81.835938 L 31.425781 82.078125 L 32.445312 82.214844 C 32.738281 82.300781 33.03125 82.335938 33.324219 82.386719 L 34.117188 82.542969 L 33.890625 83.109375 L 33.460938 83.9375 C 33.167969 84.507812 33.167969 85.179688 32.890625 85.746094 C 32.097656 87.125 31.410156 88.554688 30.394531 89.796875 C 30.082031 90.761719 29.289062 91.433594 28.601562 92.121094 C 27.910156 92.8125 27.667969 93.707031 26.925781 94.242188 C 26.1875 94.777344 25.875 95.019531 25.460938 95.515625 C 24.683594 96.46875 23.722656 97.175781 22.582031 97.636719 C 22.105469 97.804688 21.664062 98.042969 21.257812 98.34375 C 20.582031 98.359375 19.808594 98.566406 19.222656 98.101562 L 19.875 97.859375 L 20.222656 98.015625 L 20.996094 97.671875 C 20.929688 97.378906 20.875 97.085938 20.84375 96.792969 C 19.929688 95.464844 18.53125 94.636719 17.324219 93.640625 C 16.789062 93.242188 16.550781 92.589844 15.996094 92.210938 C 15.445312 91.828125 14.859375 91.054688 14.238281 90.539062 C 14.101562 90.175781 13.980469 89.796875 13.6875 89.519531 C 12.378906 88.160156 11.414062 86.523438 10.550781 84.851562 C 10.378906 84.417969 10.160156 84.011719 9.894531 83.628906 L 9.808594 83.300781 C 9.621094 83.007812 9.429688 82.714844 9.238281 82.421875 C 9.070312 81.816406 8.820312 81.242188 8.5 80.699219 C 8.378906 80.042969 8.207031 79.40625 8.085938 78.75 L 7.773438 78.457031 C 7.6875 77.992188 7.570312 77.535156 7.429688 77.082031 L 7.34375 76.734375 L 7.121094 76.21875 C 6.894531 75.238281 6.808594 74.238281 6.566406 73.253906 L 6.464844 72.789062 C 6.171875 71.375 6.222656 69.894531 6.050781 68.464844 C 5.878906 67.035156 6.015625 65.363281 6.035156 63.796875 L 6.136719 63.65625 C 6.113281 62.433594 6.214844 61.222656 6.449219 60.023438 C 6.566406 59.554688 6.6875 59.109375 6.808594 58.644531 C 7.050781 57.832031 7.085938 56.972656 7.464844 56.195312 C 7.515625 56.507812 7.566406 56.800781 7.652344 57.109375 C 7.699219 57.6875 7.796875 58.257812 7.945312 58.816406 C 8.34375 59.761719 8.207031 60.847656 8.636719 61.777344 C 8.867188 62.257812 9.039062 62.757812 9.152344 63.277344 L 9.5 63.984375 L 9.671875 64.328125 C 9.914062 64.984375 10.292969 65.570312 10.53125 66.207031 C 11.210938 67.664062 12.085938 68.988281 13.152344 70.1875 C 13.757812 71.171875 14.515625 72.050781 15.203125 72.960938 C 16.359375 73.410156 16.84375 74.667969 17.789062 75.375 C 18.308594 75.789062 18.964844 75.976562 19.410156 76.476562 C 19.859375 76.976562 20.582031 77.40625 21.222656 77.820312 C 22.34375 78.664062 23.6875 79.113281 24.894531 79.804688 Z M 24.875 79.804688 " fill-opacity="1" fill-rule="nonzero"/></g><path fill="#3c3c82" d="M 70.921875 66.742188 C 71.421875 65.613281 71.984375 64.515625 72.609375 63.449219 C 73.042969 62.691406 73.507812 61.933594 73.886719 61.140625 C 74.128906 59.761719 74.921875 58.589844 75.25 57.246094 C 75.335938 56.839844 75.445312 56.4375 75.578125 56.042969 L 75.765625 55.523438 C 75.792969 55.226562 75.839844 54.933594 75.902344 54.644531 C 75.972656 53.957031 76.023438 53.265625 76.230469 52.613281 C 76.4375 51.957031 76.265625 51.421875 76.4375 50.855469 C 76.472656 50.382812 76.464844 49.914062 76.421875 49.441406 C 76.371094 49.683594 76.316406 49.925781 76.285156 50.183594 L 76.078125 50.699219 C 76.007812 51.027344 75.972656 51.371094 75.9375 51.714844 C 75.902344 52.0625 75.730469 52.75 75.59375 53.265625 C 75.457031 53.785156 75.300781 53.957031 75.164062 54.300781 L 74.902344 55.007812 C 74.664062 55.472656 74.402344 55.921875 74.144531 56.367188 C 73.902344 57.417969 73.300781 58.296875 72.664062 59.144531 L 72.230469 59.832031 L 72.144531 60.160156 C 71.558594 60.96875 70.972656 61.796875 70.179688 62.433594 L 70.09375 62.777344 C 69.300781 63.3125 68.835938 64.191406 68.058594 64.726562 C 67.285156 65.261719 66.179688 66.433594 65.128906 67.121094 C 64.59375 67.535156 63.871094 67.671875 63.371094 68.136719 C 62.941406 68.519531 62.46875 68.839844 61.957031 69.101562 L 61.113281 69.652344 C 60.335938 70.152344 59.476562 70.515625 58.683594 70.996094 C 57.890625 71.480469 57.0625 72.289062 56.164062 72.789062 C 55.269531 73.289062 54.941406 73.859375 54.285156 74.359375 C 53.390625 75.238281 52.457031 76.097656 51.769531 77.148438 C 51.078125 78.199219 50.285156 78.890625 49.871094 79.941406 C 49.460938 80.992188 48.699219 82.113281 48.21875 83.25 C 47.804688 83.664062 47.425781 84.074219 47.011719 84.488281 C 46.558594 84.640625 46.09375 84.707031 45.613281 84.695312 C 45.253906 84.488281 44.875 84.300781 44.496094 84.109375 L 44.234375 83.78125 C 44.289062 84.179688 44.289062 84.59375 44.441406 84.972656 C 44.597656 85.351562 45.097656 85.902344 45.390625 86.386719 C 45.683594 86.867188 46.304688 87.625 46.769531 88.246094 C 47.519531 88.992188 48.324219 89.675781 49.183594 90.296875 C 49.769531 90.8125 50.320312 91.46875 51.113281 91.65625 C 51.90625 91.847656 52.578125 92.621094 53.40625 92.914062 L 54.390625 93.15625 L 54.871094 93.414062 C 55.71875 93.484375 56.542969 93.621094 57.390625 93.671875 C 56.648438 93.277344 55.871094 92.914062 55.25 92.3125 C 54.632812 91.710938 53.183594 91.484375 52.5625 90.519531 C 52.113281 89.867188 51.441406 89.433594 50.804688 88.96875 C 52.339844 88.933594 53.855469 88.96875 55.371094 88.761719 C 55.660156 88.679688 55.953125 88.617188 56.25 88.574219 L 56.941406 88.402344 L 57.976562 88.160156 L 58.320312 88.074219 L 58.855469 87.882812 C 59.300781 87.695312 59.769531 87.539062 60.234375 87.382812 C 61.164062 86.9375 62.0625 86.386719 63.007812 85.972656 C 64.007812 85.144531 64.855469 84.144531 65.734375 83.179688 C 66.40625 82.523438 66.421875 81.492188 67.027344 80.800781 L 67.027344 80.457031 L 67.320312 79.957031 C 67.59375 79.097656 67.664062 78.183594 67.992188 77.339844 C 68.039062 77.042969 68.101562 76.75 68.179688 76.460938 C 68.191406 76.058594 68.25 75.660156 68.351562 75.269531 C 68.386719 74.917969 68.4375 74.566406 68.507812 74.21875 C 68.613281 72.824219 68.886719 71.445312 69.128906 70.066406 L 69.40625 69.808594 C 69.628906 69.085938 69.894531 68.378906 70.199219 67.691406 Z M 65.679688 70.515625 C 65.542969 71.375 65.386719 72.273438 64.820312 72.960938 L 64.75 73.273438 C 64.523438 73.710938 64.269531 74.136719 63.992188 74.546875 L 63.886719 74.839844 C 63.601562 75.203125 63.371094 75.601562 63.199219 76.027344 C 62.941406 76.613281 62.507812 77.097656 62.148438 77.613281 C 61.8125 78.027344 61.457031 78.417969 61.078125 78.785156 C 60.40625 79.476562 59.941406 80.40625 59.113281 80.941406 C 58.734375 81.199219 58.355469 81.441406 58.078125 81.800781 C 57.5625 82.507812 56.820312 83.023438 56.042969 83.4375 C 55.269531 83.851562 54.992188 84.316406 54.390625 84.679688 C 53.785156 85.039062 52.839844 85.832031 51.941406 86.230469 C 51.527344 86.445312 51.160156 86.71875 50.839844 87.058594 C 51.0625 85.695312 50.890625 84.25 51.441406 82.9375 L 51.648438 82.4375 L 51.769531 81.90625 C 51.894531 81.53125 52.078125 81.183594 52.320312 80.871094 C 52.476562 80.40625 52.632812 79.957031 52.804688 79.492188 C 53.648438 78.457031 54.597656 77.476562 55.390625 76.390625 C 55.628906 75.996094 56.113281 75.875 56.476562 75.597656 C 57.820312 74.578125 59.238281 73.675781 60.734375 72.894531 L 62.148438 72.460938 C 62.855469 72.015625 63.441406 71.394531 64.199219 71.066406 L 64.714844 70.757812 C 65.214844 70.464844 65.714844 70.171875 66.234375 69.914062 Z M 65.679688 70.515625 " fill-opacity="1" fill-rule="nonzero"/><path fill="#3c3c82" d="M 69.75 78.632812 C 69.59375 79.21875 69.4375 79.804688 69.234375 80.371094 L 68.957031 80.855469 C 68.800781 81.507812 68.527344 82.128906 68.285156 82.765625 C 68.007812 83.109375 67.714844 83.4375 67.421875 83.78125 C 67.128906 84.128906 66.699219 84.78125 66.351562 85.300781 C 66.007812 85.816406 65.285156 86.316406 64.664062 86.710938 C 63.800781 87.382812 62.90625 88.039062 61.871094 88.417969 L 61.613281 88.660156 C 60.769531 89.003906 59.871094 89.140625 58.976562 89.332031 C 57.613281 89.675781 56.183594 89.625 54.804688 89.796875 L 56.40625 90.210938 C 56.871094 90.246094 57.355469 90.210938 57.804688 90.367188 C 58.992188 90.382812 60.214844 90.503906 61.40625 90.226562 C 61.792969 90.003906 62.195312 89.808594 62.613281 89.640625 C 63.09375 89.417969 63.527344 89.074219 64.007812 88.832031 C 64.59375 88.507812 65.140625 88.128906 65.648438 87.695312 C 66.199219 87.265625 66.457031 86.574219 66.972656 86.109375 C 67.820312 85.246094 68.449219 84.246094 68.871094 83.109375 C 69.027344 82.640625 69.210938 82.179688 69.421875 81.734375 L 69.472656 81.40625 C 69.558594 81.113281 69.644531 80.820312 69.730469 80.527344 C 69.820312 80.234375 69.785156 79.628906 69.851562 79.183594 C 69.945312 78.804688 69.996094 78.417969 70.007812 78.027344 C 70.105469 77.652344 70.132812 77.273438 70.09375 76.890625 C 70.007812 77.304688 70.007812 77.753906 69.835938 78.148438 Z M 69.75 78.632812 " fill-opacity="1" fill-rule="nonzero"/><path fill="#3c3c82" d="M 36.253906 103.289062 C 35.753906 103.046875 35.238281 102.851562 34.703125 102.703125 L 34.359375 102.632812 C 33.304688 102.253906 32.183594 102.253906 31.097656 102.410156 C 30.359375 102.683594 29.582031 102.804688 28.824219 103.0625 L 28.496094 103.289062 C 28.128906 103.320312 27.785156 103.421875 27.460938 103.597656 C 26.652344 104.082031 25.789062 104.546875 25.1875 105.304688 C 24.582031 106.0625 24.152344 106.597656 23.617188 107.234375 L 23.546875 107.5625 C 23.269531 107.949219 23.035156 108.363281 22.84375 108.800781 L 22.601562 109.457031 L 22.375 110.007812 C 22.359375 110.300781 22.34375 110.613281 22.324219 110.921875 L 22.667969 110.335938 C 22.773438 110.09375 22.894531 109.851562 23.03125 109.628906 L 23.101562 109.300781 C 23.6875 108.769531 24.203125 108.148438 24.773438 107.597656 L 24.824219 107.21875 C 25.152344 106.890625 25.429688 106.511719 25.875 106.339844 C 27.015625 105.855469 27.859375 104.890625 29.03125 104.460938 C 29.480469 104.273438 29.9375 104.117188 30.410156 103.996094 C 31.132812 103.738281 31.910156 103.703125 32.683594 103.667969 L 33.546875 103.582031 C 33.945312 103.667969 34.359375 103.71875 34.753906 103.804688 C 35.042969 103.851562 35.332031 103.917969 35.617188 103.996094 C 36.3125 104.128906 37.011719 104.214844 37.71875 104.253906 L 38.410156 104.613281 L 38.738281 104.789062 C 37.960938 104.183594 37.082031 103.769531 36.253906 103.289062 Z M 36.253906 103.289062 " fill-opacity="1" fill-rule="nonzero"/><path fill="#3c3c82" d="M 35.769531 111.851562 C 34.960938 111.285156 34.046875 110.90625 33.167969 110.472656 C 32.917969 110.417969 32.671875 110.347656 32.425781 110.265625 C 31.097656 110.027344 29.910156 110.699219 28.839844 111.386719 C 27.925781 111.679688 27.445312 112.507812 26.925781 113.246094 C 26.558594 113.75 26.230469 114.277344 25.945312 114.832031 L 25.6875 115.316406 C 25.582031 116.074219 25.496094 116.832031 25.410156 117.589844 C 25.324219 117.8125 25.253906 118.054688 25.1875 118.28125 L 25.132812 118.746094 C 25.066406 118.933594 25.015625 119.125 24.960938 119.332031 C 24.703125 120.019531 23.910156 119.984375 23.324219 120.210938 C 22.753906 120.367188 22.175781 120.460938 21.582031 120.484375 L 22.496094 120.726562 C 23.132812 120.726562 23.765625 120.785156 24.394531 120.898438 C 25.1875 120.984375 25.980469 120.933594 26.773438 120.933594 L 27.460938 120.707031 L 28.167969 120.570312 C 28.636719 120.320312 29.121094 120.09375 29.617188 119.898438 C 30.304688 119.519531 30.496094 118.710938 30.910156 118.089844 C 31.261719 117.65625 31.585938 117.203125 31.875 116.730469 L 31.910156 116.382812 C 32.097656 115.96875 32.273438 115.558594 32.445312 115.144531 C 32.617188 114.730469 32.910156 114.007812 33.53125 113.851562 C 34.152344 113.695312 34.804688 113.800781 35.425781 113.886719 C 36.046875 113.972656 36.582031 114.59375 37.132812 114.972656 C 37.636719 115.496094 38.050781 116.082031 38.375 116.730469 L 38.425781 116.402344 C 38.117188 115.832031 38.082031 115.160156 37.703125 114.625 C 37.03125 113.695312 36.546875 112.660156 35.769531 111.851562 Z M 35.769531 111.851562 " fill-opacity="1" fill-rule="nonzero"/><g fill="#ffffff" fill-opacity="1"><g transform="translate(158.873889, 142.064085)"><g><path d="M 29.820312 0.941406 C 42.128906 0.941406 52.117188 -6.515625 55.15625 -17.804688 L 48.425781 -17.804688 C 45.820312 -10.207031 38.652344 -5.429688 30.039062 -5.429688 C 18.746094 -5.429688 10.710938 -13.609375 10.710938 -25.335938 C 10.710938 -37.058594 18.746094 -45.238281 30.039062 -45.238281 C 38.4375 -45.238281 45.3125 -40.75 47.917969 -33.441406 L 54.722656 -33.441406 C 51.390625 -44.589844 41.765625 -51.609375 29.820312 -51.609375 C 14.910156 -51.609375 4.199219 -40.605469 4.199219 -25.335938 C 4.199219 -10.0625 14.910156 0.941406 29.820312 0.941406 Z M 29.820312 0.941406 "/></g></g></g><g fill="#ffffff" fill-opacity="1"><g transform="translate(223.420597, 142.064085)"><g><path d="M 30.402344 0.941406 C 45.820312 0.941406 56.675781 -9.917969 56.675781 -25.335938 C 56.675781 -40.75 45.820312 -51.609375 30.402344 -51.609375 C 14.984375 -51.609375 4.199219 -40.75 4.199219 -25.335938 C 4.199219 -9.917969 14.984375 0.941406 30.402344 0.941406 Z M 10.710938 -25.335938 C 10.710938 -37.132812 18.746094 -45.238281 30.402344 -45.238281 C 42.054688 -45.238281 50.089844 -37.132812 50.089844 -25.335938 C 50.089844 -13.535156 42.054688 -5.429688 30.402344 -5.429688 C 18.746094 -5.429688 10.710938 -13.535156 10.710938 -25.335938 Z M 10.710938 -25.335938 "/></g></g></g><g fill="#ffffff" fill-opacity="1"><g transform="translate(289.703926, 142.064085)"><g><path d="M 7.382812 0 L 13.753906 0 L 13.753906 -50.667969 L 7.382812 -50.667969 Z M 7.382812 0 "/></g></g></g><g fill="#ffffff" fill-opacity="1"><g transform="translate(316.334369, 142.064085)"><g><path d="M 7.382812 0 L 13.679688 0 L 13.679688 -39.667969 L 41.691406 0 L 47.628906 0 L 47.628906 -50.667969 L 41.402344 -50.667969 L 41.402344 -11.003906 L 13.390625 -50.667969 L 7.382812 -50.667969 Z M 7.382812 0 "/></g></g></g><g fill="#3c3c82" fill-opacity="1"><g transform="translate(413.168765, 142.064085)"><g><path d="M 19.398438 0 L 33.875 0 L 52.914062 -50.667969 L 37.351562 -50.667969 L 31.414062 -33.949219 L 26.710938 -20.773438 L 22.003906 -33.949219 L 16.070312 -50.667969 L 0.363281 -50.667969 Z M 19.398438 0 "/></g></g></g><g fill="#3c3c82" fill-opacity="1"><g transform="translate(466.425197, 142.064085)"><g><path d="M 5.355469 0 L 19.976562 0 L 19.976562 -50.667969 L 5.355469 -50.667969 Z M 5.355469 0 "/></g></g></g><g fill="#3c3c82" fill-opacity="1"><g transform="translate(491.750946, 142.064085)"><g><path d="M 5.355469 0 L 40.898438 0 L 40.898438 -11.941406 L 19.832031 -11.941406 L 19.832031 -19.761719 L 38.144531 -19.761719 L 38.144531 -31.488281 L 19.832031 -31.488281 L 19.832031 -38.871094 L 40.101562 -38.871094 L 40.101562 -50.667969 L 5.355469 -50.667969 Z M 5.355469 0 "/></g></g></g><g fill="#3c3c82" fill-opacity="1"><g transform="translate(535.890109, 142.064085)"><g><path d="M 16.648438 0 L 31.199219 0 L 40.390625 -28.15625 L 49.582031 0 L 64.132812 0 L 80.417969 -50.667969 L 65.074219 -50.667969 L 61.527344 -39.375 L 56.3125 -23.164062 L 47.339844 -50.667969 L 33.441406 -50.667969 L 29.675781 -39.375 L 24.539062 -23.597656 L 19.398438 -39.375 L 15.851562 -50.667969 L 0.363281 -50.667969 Z M 16.648438 0 "/></g></g></g></svg>